<svg width="150" height="150" viewBox="0 0 150 150" fill="none" xmlns="http://www.w3.org/2000/svg">
<rect width="150" height="150" fill="white"/>
<g clip-path="url(#clip0_68_12)">
<path d="M89.4077 26.5242C90.2306 27.5458 90.6501 28.9242 91.4892 31.681L109.822 91.9057C102.936 88.332 95.5451 85.8297 87.9043 84.4849L75.9675 44.147C75.8723 43.8253 75.6755 43.543 75.4065 43.3425C75.1375 43.1419 74.8109 43.0338 74.4753 43.0343C74.1398 43.0348 73.8135 43.144 73.5451 43.3454C73.2768 43.5468 73.0809 43.8297 72.9866 44.1517L61.1945 84.4648C53.5191 85.8032 46.094 88.3094 39.1776 91.8963L57.6004 31.6669C58.4424 28.9151 58.8635 27.5389 59.6864 26.5192C60.4128 25.6191 61.3578 24.92 62.431 24.4887C63.6466 24 65.0857 24 67.9637 24H81.1221C84.0039 24 85.4447 24 86.6617 24.4895C87.7358 24.9219 88.6811 25.6224 89.4074 26.5242H89.4077Z" fill="black"/>
<path d="M91.6016 94.7717C88.5793 97.3558 82.5469 99.1183 75.5983 99.1183C67.0701 99.1183 59.922 96.4634 58.0254 92.8928C57.3471 94.939 57.195 97.2813 57.195 98.7773C57.195 98.7773 56.7483 106.124 61.8582 111.234C61.8582 108.581 64.0092 106.43 66.6626 106.43C71.2103 106.43 71.2048 110.397 71.2009 113.616L71.2007 113.904C71.2007 118.789 74.1865 122.978 78.4335 124.743C77.7798 123.398 77.4412 121.921 77.4433 120.425C77.4433 115.765 80.1789 114.03 83.3585 112.014C85.8882 110.41 88.699 108.627 90.636 105.051C91.6792 103.125 92.2239 100.968 92.2205 98.7773C92.2205 97.3809 92.0036 96.0351 91.6016 94.7717Z" fill="#FF5D01"/>
</g>
<defs>
<clipPath id="clip0_68_12">
<rect width="101" height="101" fill="white" transform="translate(24 24)"/>
</clipPath>
</defs>
</svg>
