<svg width="150" height="150" viewBox="0 0 150 150" fill="none" xmlns="http://www.w3.org/2000/svg">
<rect width="150" height="150" fill="#663399"/>
<path d="M52.344 139.512C49.3147 139.512 46.6267 138.915 44.28 137.72C41.976 136.525 40.184 134.819 38.904 132.6C37.6667 130.381 37.048 127.821 37.048 124.92V108.152C37.048 105.251 37.6667 102.712 38.904 100.536C40.184 98.36 41.976 96.6747 44.28 95.48C46.6267 94.2853 49.3147 93.688 52.344 93.688C55.3733 93.688 58.04 94.264 60.344 95.416C62.6907 96.568 64.4827 98.2107 65.72 100.344C67 102.477 67.64 104.952 67.64 107.768V108.024C67.64 108.237 67.5547 108.429 67.384 108.6C67.256 108.771 67.0853 108.856 66.872 108.856L57.784 109.24C57.272 109.24 57.016 109.005 57.016 108.536V107.64C57.016 106.189 56.5893 105.016 55.736 104.12C54.8827 103.224 53.752 102.776 52.344 102.776C50.936 102.776 49.8053 103.224 48.952 104.12C48.0987 105.016 47.672 106.189 47.672 107.64V125.56C47.672 127.011 48.0987 128.184 48.952 129.08C49.8053 129.976 50.936 130.424 52.344 130.424C53.752 130.424 54.8827 129.976 55.736 129.08C56.5893 128.184 57.016 127.011 57.016 125.56V124.664C57.016 124.195 57.272 123.96 57.784 123.96L66.872 124.344C67.0853 124.344 67.256 124.429 67.384 124.6C67.5547 124.771 67.64 124.963 67.64 125.176V125.304C67.64 128.12 67 130.616 65.72 132.792C64.4827 134.925 62.6907 136.589 60.344 137.784C58.04 138.936 55.3733 139.512 52.344 139.512ZM86.524 139.512C83.452 139.512 80.764 138.979 78.46 137.912C76.1987 136.845 74.428 135.352 73.148 133.432C71.9107 131.469 71.292 129.208 71.292 126.648V124.984C71.292 124.771 71.356 124.6 71.484 124.472C71.6547 124.301 71.8467 124.216 72.06 124.216H81.02C81.2333 124.216 81.404 124.301 81.532 124.472C81.7027 124.6 81.788 124.771 81.788 124.984V126.136C81.788 127.331 82.2573 128.355 83.196 129.208C84.1347 130.019 85.3933 130.424 86.972 130.424C88.2947 130.424 89.2973 130.083 89.98 129.4C90.6627 128.717 91.004 127.885 91.004 126.904C91.004 126.093 90.748 125.411 90.236 124.856C89.7667 124.259 89.1053 123.725 88.252 123.256C87.3987 122.787 85.9267 122.019 83.836 120.952C81.404 119.757 79.3347 118.605 77.628 117.496C75.9213 116.344 74.4493 114.851 73.212 113.016C72.0173 111.181 71.42 108.984 71.42 106.424C71.42 103.864 72.0387 101.624 73.276 99.704C74.5133 97.784 76.2413 96.312 78.46 95.288C80.6787 94.2213 83.2173 93.688 86.076 93.688C89.02 93.688 91.644 94.264 93.948 95.416C96.252 96.5253 98.044 98.104 99.324 100.152C100.647 102.157 101.308 104.483 101.308 107.128V108.344C101.308 108.557 101.223 108.749 101.052 108.92C100.924 109.048 100.753 109.112 100.54 109.112H91.58C91.3667 109.112 91.1747 109.048 91.004 108.92C90.876 108.749 90.812 108.557 90.812 108.344V107.256C90.812 106.019 90.364 104.973 89.468 104.12C88.572 103.224 87.356 102.776 85.82 102.776C84.5827 102.776 83.6227 103.096 82.94 103.736C82.2573 104.376 81.916 105.251 81.916 106.36C81.916 107.171 82.1507 107.896 82.62 108.536C83.0893 109.133 83.8147 109.731 84.796 110.328C85.82 110.925 87.356 111.736 89.404 112.76L91.26 113.784C93.564 115.064 95.3987 116.195 96.764 117.176C98.1293 118.157 99.26 119.416 100.156 120.952C101.095 122.488 101.564 124.344 101.564 126.52C101.564 130.531 100.177 133.709 97.404 136.056C94.6733 138.36 91.0467 139.512 86.524 139.512ZM120.212 139.512C117.14 139.512 114.452 138.979 112.148 137.912C109.886 136.845 108.116 135.352 106.836 133.432C105.598 131.469 104.98 129.208 104.98 126.648V124.984C104.98 124.771 105.044 124.6 105.172 124.472C105.342 124.301 105.534 124.216 105.748 124.216H114.708C114.921 124.216 115.092 124.301 115.22 124.472C115.39 124.6 115.476 124.771 115.476 124.984V126.136C115.476 127.331 115.945 128.355 116.884 129.208C117.822 130.019 119.081 130.424 120.66 130.424C121.982 130.424 122.985 130.083 123.668 129.4C124.35 128.717 124.692 127.885 124.692 126.904C124.692 126.093 124.436 125.411 123.924 124.856C123.454 124.259 122.793 123.725 121.94 123.256C121.086 122.787 119.614 122.019 117.524 120.952C115.092 119.757 113.022 118.605 111.316 117.496C109.609 116.344 108.137 114.851 106.9 113.016C105.705 111.181 105.108 108.984 105.108 106.424C105.108 103.864 105.726 101.624 106.964 99.704C108.201 97.784 109.929 96.312 112.148 95.288C114.366 94.2213 116.905 93.688 119.764 93.688C122.708 93.688 125.332 94.264 127.636 95.416C129.94 96.5253 131.732 98.104 133.012 100.152C134.334 102.157 134.996 104.483 134.996 107.128V108.344C134.996 108.557 134.91 108.749 134.74 108.92C134.612 109.048 134.441 109.112 134.228 109.112H125.268C125.054 109.112 124.862 109.048 124.692 108.92C124.564 108.749 124.5 108.557 124.5 108.344V107.256C124.5 106.019 124.052 104.973 123.156 104.12C122.26 103.224 121.044 102.776 119.508 102.776C118.27 102.776 117.31 103.096 116.628 103.736C115.945 104.376 115.604 105.251 115.604 106.36C115.604 107.171 115.838 107.896 116.308 108.536C116.777 109.133 117.502 109.731 118.484 110.328C119.508 110.925 121.044 111.736 123.092 112.76L124.948 113.784C127.252 115.064 129.086 116.195 130.452 117.176C131.817 118.157 132.948 119.416 133.844 120.952C134.782 122.488 135.252 124.344 135.252 126.52C135.252 130.531 133.865 133.709 131.092 136.056C128.361 138.36 124.734 139.512 120.212 139.512Z" fill="white"/>
</svg>
