<svg width="150" height="150" viewBox="0 0 150 150" fill="none" xmlns="http://www.w3.org/2000/svg">
<rect width="150" height="150" fill="white"/>
<path d="M102.872 108.107H102.444V107.868H103.596V108.107H103.171V109.296H102.872V108.107ZM105.17 108.169H105.163L104.739 109.296H104.545L104.124 108.169H104.118V109.296H103.837V107.868H104.251L104.642 108.879L105.031 107.868H105.445V109.296H105.169L105.17 108.169Z" fill="#5382A1"/>
<path d="M64.563 78.9132C64.563 78.9132 61.5856 80.6372 66.6819 81.2205C72.8559 81.9218 76.0114 81.8212 82.8152 80.5391C82.8152 80.5391 84.6039 81.6558 87.1021 82.6231C71.8498 89.1317 52.5831 82.2461 64.563 78.9132Z" fill="#5382A1"/>
<path d="M62.6993 70.4199C62.6993 70.4199 59.3599 72.8811 64.4599 73.4064C71.0552 74.0838 76.2636 74.1392 85.2762 72.4113C85.2762 72.4113 86.5227 73.6696 88.4829 74.3577C70.0419 79.7268 49.502 74.7811 62.6993 70.4199Z" fill="#5382A1"/>
<path d="M78.4112 56.0125C82.1694 60.3206 77.4238 64.1974 77.4238 64.1974C77.4238 64.1974 86.9664 59.2925 82.5839 53.1505C78.4908 47.4226 75.352 44.5767 92.3445 34.7643C92.3445 34.7643 65.6718 41.3971 78.4112 56.0125Z" fill="#F8981D"/>
<path d="M98.5836 85.1953C98.5836 85.1953 100.787 87.0029 96.1571 88.4013C87.3533 91.0568 59.5146 91.8586 51.7812 88.5071C49.0012 87.3029 54.2144 85.6319 55.8543 85.2812C57.5646 84.912 58.5419 84.9808 58.5419 84.9808C55.4503 82.8123 38.5589 89.2387 49.9619 91.0791C81.0596 96.1004 106.65 88.818 98.5836 85.1953Z" fill="#5382A1"/>
<path d="M65.9948 61.6199C65.9948 61.6199 51.8343 64.9687 60.9802 66.1848C64.8419 66.6996 72.5401 66.5831 79.7107 65.9849C85.571 65.4927 91.4554 64.4462 91.4554 64.4462C91.4554 64.4462 89.389 65.3273 87.894 66.3437C73.5143 70.1092 45.7352 68.3575 53.7325 64.5058C60.4957 61.2507 65.9948 61.6199 65.9948 61.6199Z" fill="#5382A1"/>
<path d="M91.397 75.7574C106.015 68.1944 99.2561 60.9264 94.5386 61.9056C93.3824 62.1452 92.8668 62.3528 92.8668 62.3528C92.8668 62.3528 93.2961 61.6833 94.1159 61.3935C103.449 58.1267 110.626 71.0286 91.1032 76.1386C91.1032 76.1386 91.3294 75.9374 91.397 75.7574Z" fill="#5382A1"/>
<path d="M82.5839 18.9198C82.5839 18.9198 90.6794 26.983 74.9057 39.3819C62.2568 49.3279 72.0214 54.9989 74.9005 61.4782C67.5171 54.8454 62.0986 49.0065 65.7337 43.5722C71.0692 35.5952 85.8503 31.7277 82.5839 18.9198Z" fill="#F8981D"/>
<path d="M67.4312 96.2514C81.4623 97.1457 103.009 95.7552 103.519 89.1448C103.519 89.1448 102.538 91.6508 91.9231 93.6409C79.9472 95.8849 65.1766 95.6229 56.416 94.1848C56.416 94.1848 58.2094 95.6626 67.4312 96.2514Z" fill="#5382A1"/>
<path d="M65.1317 121.51C63.8081 122.653 62.4101 123.295 61.1556 123.295C59.3649 123.295 58.3974 122.226 58.3974 120.511C58.3974 118.656 59.434 117.3 63.5926 117.3H65.1315L65.1317 121.51ZM68.784 125.613V112.912C68.784 109.668 66.9255 107.527 62.4445 107.527C59.8286 107.527 57.5371 108.17 55.6746 108.991L56.2122 111.239C57.6786 110.703 59.5768 110.204 61.4399 110.204C64.0212 110.204 65.1317 111.239 65.1317 113.378V114.983H63.8434C57.5717 114.983 54.7426 117.407 54.7426 121.046C54.7426 124.186 56.607 125.97 60.1173 125.97C62.3738 125.97 64.0582 125.043 65.6328 123.685L65.9186 125.613L68.784 125.613Z" fill="#5382A1"/>
<path d="M80.9733 125.613H76.4179L70.9357 107.849H74.9137L78.3155 118.763L79.0717 122.046C80.7927 117.3 82.0098 112.485 82.6186 107.849H86.4883C85.4515 113.698 83.5859 120.119 80.9733 125.613Z" fill="#5382A1"/>
<path d="M98.448 121.51C97.1218 122.653 95.7213 123.295 94.4668 123.295C92.6793 123.295 91.7093 122.226 91.7093 120.511C91.7093 118.656 92.7484 117.3 96.9066 117.3H98.448V121.51ZM102.1 125.613V112.912C102.1 109.668 100.237 107.527 95.761 107.527C93.1432 107.527 90.8508 108.17 88.9892 108.991L89.5259 111.239C90.993 110.703 92.8947 110.204 94.7564 110.204C97.3358 110.204 98.448 111.239 98.448 113.378V114.983H97.1575C90.884 114.983 88.0561 117.407 88.0561 121.046C88.0561 124.186 89.919 125.97 93.4288 125.97C95.6865 125.97 97.3703 125.043 98.9476 123.685L99.2344 125.613L102.1 125.613Z" fill="#5382A1"/>
<path d="M50.7379 128.63C49.6967 130.143 48.015 131.341 46.1739 132.018L44.3707 129.905C45.772 129.19 46.9738 128.033 47.5322 126.956C48.0152 125.998 48.2151 124.764 48.2151 121.812V101.531H52.0955V121.534C52.0953 125.481 51.7784 127.075 50.7379 128.63Z" fill="#5382A1"/>
</svg>
