<svg width="150" height="150" viewBox="0 0 150 150" fill="none" xmlns="http://www.w3.org/2000/svg">
<rect width="150" height="150" fill="black"/>
<g clip-path="url(#clip0_8_177)">
<mask id="mask0_8_177" style="mask-type:alpha" maskUnits="userSpaceOnUse" x="4" y="4" width="143" height="143">
<path d="M75.5 147C114.988 147 147 114.988 147 75.5C147 36.0116 114.988 4 75.5 4C36.0116 4 4 36.0116 4 75.5C4 114.988 36.0116 147 75.5 147Z" fill="black"/>
</mask>
<g mask="url(#mask0_8_177)">
<path d="M75.5 147C114.988 147 147 114.988 147 75.5C147 36.0116 114.988 4 75.5 4C36.0116 4 4 36.0116 4 75.5C4 114.988 36.0116 147 75.5 147Z" fill="black"/>
<path d="M122.776 129.141L58.9295 46.9H46.9V104.076H56.5236V59.1214L115.221 134.96C117.87 133.188 120.393 131.242 122.776 129.141Z" fill="url(#paint0_linear_8_177)"/>
<path d="M104.894 46.9H95.3611V104.1H104.894V46.9Z" fill="url(#paint1_linear_8_177)"/>
</g>
</g>
<defs>
<linearGradient id="paint0_linear_8_177" x1="90.5944" y1="96.5528" x2="118.797" y2="131.508" gradientUnits="userSpaceOnUse">
<stop stop-color="white"/>
<stop offset="1" stop-color="white" stop-opacity="0"/>
</linearGradient>
<linearGradient id="paint1_linear_8_177" x1="100.128" y1="46.9" x2="99.9681" y2="88.9063" gradientUnits="userSpaceOnUse">
<stop stop-color="white"/>
<stop offset="1" stop-color="white" stop-opacity="0"/>
</linearGradient>
<clipPath id="clip0_8_177">
<rect width="143" height="143" fill="white" transform="translate(4 4)"/>
</clipPath>
</defs>
</svg>
