<svg width="150" height="150" viewBox="0 0 150 150" fill="none" xmlns="http://www.w3.org/2000/svg">
<rect width="150" height="150" fill="black"/>
<path d="M94.0648 96.0104H115.805V100.019H107.181V121.107H102.868V100.019H94.0648V96.0104Z" fill="white"/>
<path d="M58.3112 96.0104V100.019H40.8853V106.467H54.8992V110.476H40.8853V117.099H58.3112V121.107H36.5733V100.019H36.5715V96.0104H58.3112Z" fill="white"/>
<path d="M69.1665 96.0209H63.5234L83.7357 121.118H89.3952L79.2878 108.578L89.3791 96.0401L83.7357 96.0488L76.4625 105.073L69.1665 96.0209Z" fill="white"/>
<path d="M74.9572 113.948L72.1312 110.438L63.5073 121.137H69.1665L74.9572 113.948Z" fill="white"/>
<path fill-rule="evenodd" clip-rule="evenodd" d="M36.7244 121.107L16.4849 96H11.0949V121.097H15.4069V101.364L31.3074 121.107H36.7244Z" fill="white"/>
<path d="M116.774 120.954C116.458 120.954 116.19 120.845 115.965 120.626C115.74 120.408 115.628 120.143 115.631 119.829C115.628 119.525 115.74 119.263 115.965 119.044C116.19 118.826 116.458 118.716 116.774 118.716C117.078 118.716 117.344 118.826 117.568 119.044C117.797 119.263 117.91 119.525 117.913 119.829C117.91 120.036 117.858 120.226 117.752 120.396C117.644 120.569 117.507 120.704 117.335 120.802C117.165 120.902 116.978 120.954 116.774 120.954Z" fill="white"/>
<path d="M124.134 110.381H126.044V117.736C126.042 118.412 125.895 118.99 125.609 119.476C125.32 119.962 124.92 120.333 124.405 120.594C123.894 120.853 123.295 120.986 122.614 120.986C121.992 120.986 121.434 120.873 120.937 120.655C120.441 120.436 120.046 120.108 119.757 119.677C119.465 119.246 119.321 118.708 119.321 118.063H121.235C121.238 118.345 121.303 118.59 121.425 118.794C121.548 118.998 121.717 119.153 121.934 119.263C122.153 119.372 122.404 119.427 122.687 119.427C122.994 119.427 123.257 119.363 123.47 119.234C123.683 119.107 123.847 118.918 123.961 118.665C124.072 118.414 124.131 118.104 124.134 117.736V110.381Z" fill="white"/>
<path d="M133.907 113.258C133.86 112.812 133.655 112.464 133.299 112.216C132.939 111.966 132.475 111.842 131.905 111.842C131.505 111.842 131.16 111.903 130.874 112.021C130.588 112.142 130.366 112.303 130.214 112.507C130.062 112.711 129.986 112.944 129.98 113.206C129.98 113.424 130.032 113.614 130.135 113.772C130.237 113.933 130.374 114.069 130.553 114.178C130.728 114.29 130.923 114.382 131.137 114.457C131.353 114.532 131.569 114.595 131.785 114.647L132.782 114.891C133.182 114.983 133.571 115.107 133.942 115.265C134.313 115.42 134.649 115.619 134.944 115.858C135.239 116.096 135.473 116.384 135.645 116.72C135.817 117.057 135.905 117.451 135.905 117.905C135.905 118.518 135.747 119.056 135.429 119.522C135.11 119.985 134.652 120.347 134.05 120.609C133.451 120.868 132.726 121 131.873 121C131.049 121 130.33 120.873 129.726 120.62C129.118 120.37 128.645 120.002 128.303 119.519C127.961 119.036 127.777 118.446 127.751 117.753H129.644C129.67 118.115 129.787 118.417 129.986 118.662C130.187 118.903 130.45 119.082 130.772 119.202C131.096 119.32 131.458 119.381 131.859 119.381C132.276 119.381 132.645 119.317 132.963 119.194C133.278 119.07 133.527 118.898 133.705 118.673C133.886 118.452 133.977 118.19 133.98 117.891C133.977 117.618 133.895 117.39 133.737 117.212C133.576 117.034 133.354 116.884 133.071 116.763C132.785 116.643 132.452 116.533 132.072 116.438L130.862 116.134C129.989 115.912 129.296 115.576 128.791 115.124C128.282 114.673 128.031 114.074 128.031 113.324C128.031 112.708 128.2 112.168 128.543 111.704C128.881 111.241 129.346 110.882 129.933 110.626C130.523 110.367 131.19 110.24 131.931 110.24C132.685 110.24 133.346 110.367 133.915 110.626C134.485 110.882 134.932 111.239 135.256 111.693C135.581 112.147 135.75 112.668 135.759 113.258H133.907Z" fill="white"/>
</svg>
