<svg width="150" height="150" viewBox="0 0 150 150" fill="none" xmlns="http://www.w3.org/2000/svg">
<rect width="150" height="150" fill="#F8F8F8"/>
<g clip-path="url(#clip0_7_142)">
<path d="M115.861 24.8887C114.443 28.2926 112.608 31.507 110.399 34.4578C105.667 29.5579 100.002 25.6579 93.7383 22.9884C87.4747 20.3189 80.7397 18.9342 73.932 18.9161C67.1243 18.8981 60.3822 20.2472 54.1045 22.8835C47.8268 25.5198 42.1411 29.3897 37.3839 34.2644C32.6267 39.1391 28.8945 44.9195 26.4082 51.2635C23.922 57.6075 22.7322 64.3863 22.9091 71.1987C23.0861 78.0112 24.6264 84.7189 27.4387 90.9249C30.251 97.131 34.2783 102.709 39.2822 107.33L41.173 109.012C48.3485 115.07 57.0588 119.022 66.3395 120.429C75.6201 121.837 85.1089 120.646 93.755 116.988C102.401 113.33 109.867 107.348 115.326 99.7043C120.785 92.0605 124.024 83.0534 124.685 73.6804C126.156 60.8516 122.269 44.4474 115.861 24.8887ZM46.6354 107.751C46.0953 108.415 45.3706 108.904 44.5528 109.156C43.7351 109.409 42.861 109.412 42.041 109.168C41.221 108.923 40.492 108.44 39.946 107.78C39.4 107.121 39.0617 106.314 38.9736 105.462C38.8856 104.61 39.0518 103.751 39.4513 102.993C39.8508 102.236 40.4657 101.614 41.2182 101.206C41.9708 100.798 42.8271 100.623 43.6792 100.702C44.5312 100.782 45.3406 101.112 46.0052 101.652C46.8763 102.39 47.4283 103.437 47.5458 104.574C47.6633 105.711 47.3371 106.849 46.6354 107.751ZM115.546 92.5031C103.045 109.223 76.1535 103.544 59.0309 104.386C59.0309 104.386 55.9846 104.596 52.9382 105.017C52.9382 105.017 54.0937 104.491 55.5644 103.965C67.6447 99.7588 73.3172 98.9175 80.6704 95.132C94.4315 88.0866 108.193 72.6289 110.924 56.6454C105.671 71.998 89.7044 85.2474 75.208 90.6103C65.2286 94.2907 47.2657 97.866 47.2657 97.866L46.5304 97.4454C34.345 91.4516 33.9248 64.9526 56.1946 56.4351C65.964 52.6495 75.208 54.7526 85.8177 52.2289C97.0577 49.6 110.083 41.1877 115.336 30.1464C121.218 47.9175 128.361 75.4681 115.546 92.5031Z" fill="#76DB33"/>
</g>
<defs>
<clipPath id="clip0_7_142">
<rect width="102" height="102" fill="white" transform="translate(23 19)"/>
</clipPath>
</defs>
</svg>
