<svg width="150" height="150" viewBox="0 0 150 150" fill="none" xmlns="http://www.w3.org/2000/svg">
<rect width="150" height="150" fill="#FF9831"/>
<path d="M40.9883 136H30.793V118.129H21.7402V136H11.5449V93.168H21.7402V109.369H30.793V93.168H40.9883V136ZM63.459 136H53.3223V101.986H45.5879V93.168H71.1348V101.986H63.459V136ZM92.375 136L84.9922 107.201H84.7578C84.8555 108.49 84.9336 109.74 84.9922 110.951C85.0703 112.143 85.1289 113.275 85.168 114.35C85.207 115.424 85.2266 116.439 85.2266 117.396V136H75.7051V93.168H89.6797L96.3301 118.891H96.5059L103.186 93.168H117.043V136H107.258V117.221C107.258 116.146 107.277 115.082 107.316 114.027C107.355 112.953 107.404 111.85 107.463 110.717C107.521 109.584 107.59 108.412 107.668 107.201H107.434L99.9336 136H92.375ZM124.162 136V93.168H134.357V127.24H145.52V136H124.162Z" fill="white"/>
</svg>
