<svg width="150" height="150" viewBox="0 0 150 150" fill="none" xmlns="http://www.w3.org/2000/svg">
<rect width="150" height="150" fill="#FFE853"/>
<path d="M72.7734 140.977C69.0234 140.977 65.8203 140.195 63.1641 138.633C60.5339 137.044 58.3594 134.544 56.6406 131.133L64.2188 126.016C65 127.526 66.0547 128.685 67.3828 129.492C68.7109 130.299 70.1302 130.703 71.6406 130.703C74.0365 130.703 75.8333 130 77.0312 128.594C78.2292 127.161 78.8281 124.57 78.8281 120.82V86.25H90.7812V121.797C90.7812 125.312 90.1432 128.529 88.8672 131.445C87.5911 134.336 85.625 136.654 82.9688 138.398C80.3125 140.117 76.9141 140.977 72.7734 140.977ZM119.531 140.977C115.911 140.977 112.37 140.339 108.906 139.062C105.469 137.76 102.383 135.794 99.6484 133.164L106.016 125.352C107.917 127.07 110.091 128.398 112.539 129.336C115.013 130.247 117.422 130.703 119.766 130.703C122.37 130.703 124.31 130.221 125.586 129.258C126.888 128.294 127.539 126.992 127.539 125.352C127.539 123.607 126.823 122.331 125.391 121.523C123.958 120.716 122.057 119.818 119.688 118.828L112.695 115.859C110.846 115.078 109.089 114.049 107.422 112.773C105.755 111.471 104.401 109.87 103.359 107.969C102.318 106.042 101.797 103.776 101.797 101.172C101.797 98.2292 102.617 95.5599 104.258 93.1641C105.898 90.7422 108.164 88.8281 111.055 87.4219C113.945 85.9896 117.24 85.2734 120.938 85.2734C124.167 85.2734 127.279 85.8594 130.273 87.0312C133.268 88.2031 135.872 89.8438 138.086 91.9531L131.836 99.7656C128.164 96.9792 124.531 95.5859 120.938 95.5859C118.802 95.5859 117.096 96.0156 115.82 96.875C114.57 97.7344 113.945 98.9453 113.945 100.508C113.945 102.201 114.727 103.477 116.289 104.336C117.852 105.195 119.818 106.094 122.188 107.031L129.023 109.766C132.331 111.12 134.935 112.943 136.836 115.234C138.763 117.526 139.727 120.599 139.727 124.453C139.727 127.422 138.932 130.156 137.344 132.656C135.755 135.156 133.451 137.174 130.43 138.711C127.435 140.221 123.802 140.977 119.531 140.977Z" fill="#2B2728"/>
</svg>
