<svg width="150" height="150" viewBox="0 0 150 150" fill="none" xmlns="http://www.w3.org/2000/svg">
<rect width="150" height="150" fill="#23272F"/>
<path d="M114.131 52.6532C112.822 52.2018 111.501 51.7836 110.171 51.399C110.395 50.4814 110.601 49.5749 110.783 48.6843C113.78 34.0601 111.821 22.2786 105.128 18.3995C98.7118 14.6808 88.2179 18.5584 77.6197 27.8296C76.5752 28.7449 75.5539 29.6867 74.5567 30.6539C73.8891 30.0107 73.2098 29.38 72.519 28.7622C61.4116 18.8491 50.2781 14.6711 43.5929 18.5613C37.182 22.2916 35.2837 33.3671 37.982 47.2268C38.2504 48.5995 38.5535 49.965 38.891 51.3222C37.3151 51.7723 35.7944 52.2514 34.3391 52.7614C21.3164 57.3253 13 64.4773 13 71.8959C13 79.5579 21.9281 87.2431 35.4917 91.9031C36.5913 92.2793 37.7001 92.6279 38.817 92.9486C38.4543 94.4104 38.1322 95.882 37.8513 97.3618C35.2789 110.981 37.2877 121.795 43.6813 125.501C50.2849 129.329 61.3683 125.395 72.1601 115.912C73.0352 115.141 73.891 114.349 74.7268 113.535C75.8067 114.582 76.9154 115.599 78.0516 116.584C88.5057 125.626 98.83 129.277 105.217 125.56C111.815 121.721 113.959 110.104 111.175 95.9709C110.956 94.8637 110.71 93.7619 110.438 92.6666C111.216 92.4348 111.98 92.1962 112.725 91.948C126.825 87.2522 136 79.6603 136 71.8959C136 64.4502 127.415 57.2499 114.131 52.6532ZM111.072 86.9349C110.4 87.1586 109.71 87.3744 109.006 87.5845C107.45 82.6309 105.349 77.3638 102.778 71.9215C105.231 66.609 107.251 61.4091 108.764 56.4878C110.022 56.8539 111.243 57.2398 112.421 57.6469C123.803 61.5859 130.746 67.4088 130.746 71.8959C130.746 76.6752 123.247 82.8796 111.072 86.9349ZM106.021 96.9967C107.252 103.246 107.427 108.897 106.612 113.314C105.879 117.284 104.406 119.93 102.584 120.99C98.7084 123.245 90.4189 120.314 81.4788 112.581C80.4219 111.665 79.3906 110.719 78.386 109.746C81.8521 105.936 85.3158 101.507 88.6964 96.5872C94.6427 96.0569 100.26 95.1895 105.355 94.0058C105.606 95.0234 105.828 96.0212 106.021 96.9967ZM54.9334 120.6C51.1463 121.944 48.13 121.983 46.3066 120.926C42.4268 118.677 40.8139 109.994 43.0139 98.3471C43.2754 96.9708 43.5749 95.6021 43.9119 94.2425C48.9501 95.3629 54.5269 96.1685 60.4871 96.6543C63.8908 101.468 67.4544 105.892 71.0459 109.766C70.2827 110.509 69.5013 111.232 68.7027 111.936C63.9302 116.129 59.1481 119.104 54.9334 120.6ZM37.1916 86.9055C31.1939 84.8447 26.2408 82.1668 22.8458 79.2445C19.7948 76.6187 18.2549 74.0112 18.2549 71.8959C18.2549 67.3938 24.932 61.6515 36.0687 57.7488C37.4203 57.2755 38.8348 56.8288 40.3026 56.4096C41.8421 61.4419 43.861 66.7037 46.2974 72.0243C43.8293 77.4237 41.7815 82.7695 40.2272 87.8612C39.2077 87.5677 38.1955 87.249 37.1916 86.9055ZM43.1388 46.2121C40.8273 34.3378 42.3624 25.3805 46.2259 23.1324C50.3406 20.7379 59.4397 24.1519 69.0303 32.7117C69.6557 33.2712 70.271 33.8419 70.8758 34.4238C67.3021 38.2811 63.7711 42.6726 60.3978 47.4576C54.6129 47.9966 49.0755 48.8621 43.9845 50.0216C43.6708 48.7593 43.3888 47.4887 43.1388 46.2121ZM96.1956 59.3812C94.9931 57.2934 93.746 55.2318 92.4551 53.198C96.3796 53.6969 100.14 54.359 103.671 55.1684C102.611 58.5838 101.289 62.1543 99.7342 65.8151C98.5974 63.647 97.4176 61.5019 96.1956 59.3812ZM74.5591 38.1985C76.9826 40.8378 79.4099 43.7843 81.7974 46.9815C76.9542 46.7515 72.103 46.7506 67.2598 46.9786C69.6497 43.8109 72.0977 40.8683 74.5591 38.1985ZM52.7838 59.4174C51.577 61.5211 50.4192 63.6527 49.3114 65.8107C47.7816 62.163 46.4723 58.5761 45.4033 55.1124C48.9126 54.3233 52.655 53.678 56.5545 53.1883C55.2493 55.2346 53.992 57.3118 52.7838 59.4174ZM56.6664 90.9792C52.6377 90.5271 48.8391 89.9152 45.3307 89.1473C46.4166 85.6218 47.7547 81.9586 49.3177 78.2327C50.4299 80.3922 51.5925 82.5252 52.8044 84.6298C54.0508 86.7934 55.3413 88.9126 56.6664 90.9792ZM74.7042 105.965C72.2135 103.264 69.7294 100.276 67.3035 97.0629C69.6588 97.1556 72.0597 97.2029 74.5 97.2029C77.0071 97.2029 79.4853 97.1464 81.9247 97.0373C79.5295 100.309 77.1113 103.301 74.7042 105.965ZM99.7837 78.0424C101.428 81.8094 102.814 85.4533 103.914 88.9184C100.348 89.7365 96.4973 90.3953 92.4402 90.8845C93.7403 88.8129 94.9992 86.7155 96.2162 84.5936C97.4536 82.4367 98.6431 80.2525 99.7837 78.0424ZM91.6647 81.9548C89.8016 85.2081 87.8337 88.3997 85.7641 91.5244C82.0153 91.7913 78.2582 91.9239 74.5 91.9219C70.6721 91.9219 66.949 91.8021 63.3637 91.5684C61.2401 88.4508 59.2347 85.2537 57.3516 81.9837C55.4774 78.7311 53.7272 75.4081 52.1039 72.0219C53.7231 68.6349 55.4684 65.3104 57.3362 62.0553L57.3357 62.0558C59.2028 58.7998 61.1923 55.6163 63.2998 52.5122C66.9576 52.234 70.7086 52.0891 74.4995 52.0891C78.3077 52.0891 82.064 52.2355 85.7209 52.5156C87.8071 55.6151 89.7838 58.7876 91.6474 62.0273C93.5215 65.2752 95.2899 68.5836 96.9499 71.9471C95.3069 75.345 93.5441 78.683 91.6647 81.9548ZM102.504 22.975C106.623 25.3627 108.225 34.9913 105.637 47.618C105.471 48.4235 105.286 49.2441 105.084 50.0762C99.9807 48.892 94.4395 48.0116 88.6378 47.4644C85.2582 42.6267 81.756 38.2285 78.2405 34.4209C79.1618 33.5282 80.1051 32.6586 81.0695 31.813C90.1503 23.8699 98.6373 20.7336 102.504 22.975ZM74.5 60.8556C80.5659 60.8556 85.4835 65.7986 85.4835 71.8959C85.4835 77.9931 80.5659 82.9361 74.5 82.9361C68.4341 82.9361 63.5165 77.9931 63.5165 71.8959C63.5165 65.7986 68.4341 60.8556 74.5 60.8556Z" fill="#00D8FF"/>
</svg>
