<svg width="150" height="150" viewBox="0 0 150 150" fill="none" xmlns="http://www.w3.org/2000/svg">
<rect x="0.5" y="0.5" width="149" height="149" fill="#212122" stroke="black"/>
<mask id="mask0_7_139" style="mask-type:luminance" maskUnits="userSpaceOnUse" x="24" y="44" width="101" height="61">
<path d="M24 44H125V104.873H24V44Z" fill="white"/>
</mask>
<g mask="url(#mask0_7_139)">
<path fill-rule="evenodd" clip-rule="evenodd" d="M74.5 44C61.0333 44 52.6167 50.7636 49.25 64.2909C54.3 57.5273 60.1917 54.9909 66.925 56.6818C70.7667 57.6456 73.5124 60.4469 76.5518 63.545C81.5027 68.5933 87.2335 74.4364 99.75 74.4364C113.217 74.4364 121.633 67.6727 125 54.1455C119.95 60.9091 114.058 63.4455 107.325 61.7545C103.483 60.7907 100.738 57.9895 97.6982 54.8913C92.7473 49.843 87.0165 44 74.5 44ZM49.25 74.4364C35.7833 74.4364 27.3667 81.2 24 94.7273C29.05 87.9636 34.9417 85.4273 41.675 87.1182C45.5167 88.0839 48.2624 90.8833 51.3018 93.9814C56.2527 99.0297 61.9835 104.873 74.5 104.873C87.9667 104.873 96.3833 98.1091 99.75 84.5818C94.7 91.3455 88.8083 93.8818 82.075 92.1909C78.2333 91.2271 75.4876 88.4258 72.4482 85.3277C67.4973 80.2794 61.7665 74.4364 49.25 74.4364Z" fill="#38BDF8"/>
</g>
</svg>
