<svg width="150" height="150" viewBox="0 0 150 150" fill="none" xmlns="http://www.w3.org/2000/svg">
<rect width="150" height="150" fill="#3178C6"/>
<path d="M66.875 140V96.25H52.0312V86.25H93.6719V96.25H78.8281V140H66.875ZM118.516 140.977C114.896 140.977 111.354 140.339 107.891 139.062C104.453 137.76 101.367 135.794 98.6328 133.164L105 125.352C106.901 127.07 109.076 128.398 111.523 129.336C113.997 130.247 116.406 130.703 118.75 130.703C121.354 130.703 123.294 130.221 124.57 129.258C125.872 128.294 126.523 126.992 126.523 125.352C126.523 123.607 125.807 122.331 124.375 121.523C122.943 120.716 121.042 119.818 118.672 118.828L111.68 115.859C109.831 115.078 108.073 114.049 106.406 112.773C104.74 111.471 103.385 109.87 102.344 107.969C101.302 106.042 100.781 103.776 100.781 101.172C100.781 98.2292 101.602 95.5599 103.242 93.1641C104.883 90.7422 107.148 88.8281 110.039 87.4219C112.93 85.9896 116.224 85.2734 119.922 85.2734C123.151 85.2734 126.263 85.8594 129.258 87.0312C132.253 88.2031 134.857 89.8438 137.07 91.9531L130.82 99.7656C127.148 96.9792 123.516 95.5859 119.922 95.5859C117.786 95.5859 116.081 96.0156 114.805 96.875C113.555 97.7344 112.93 98.9453 112.93 100.508C112.93 102.201 113.711 103.477 115.273 104.336C116.836 105.195 118.802 106.094 121.172 107.031L128.008 109.766C131.315 111.12 133.919 112.943 135.82 115.234C137.747 117.526 138.711 120.599 138.711 124.453C138.711 127.422 137.917 130.156 136.328 132.656C134.74 135.156 132.435 137.174 129.414 138.711C126.419 140.221 122.786 140.977 118.516 140.977Z"
      fill="white"/>
</svg>